<?xml version="1.0" encoding="UTF-8" standalone="no"?>
<!-- Created with Inkscape (http://www.inkscape.org/) -->

<svg
   width="3000"
   height="3000"
   viewBox="0 0 793.74998 793.75"
   version="1.1"
   id="svg5"
   xml:space="preserve"
   inkscape:version="1.2.2 (732a01da63, 2022-12-09)"
   sodipodi:docname="TGoodluck_012.svg"
   xmlns:inkscape="http://www.inkscape.org/namespaces/inkscape"
   xmlns:sodipodi="http://sodipodi.sourceforge.net/DTD/sodipodi-0.dtd"
   xmlns="http://www.w3.org/2000/svg"
   xmlns:svg="http://www.w3.org/2000/svg"><sodipodi:namedview
     id="namedview7"
     pagecolor="#ffffff"
     bordercolor="#000000"
     borderopacity="0.25"
     inkscape:showpageshadow="2"
     inkscape:pageopacity="0.0"
     inkscape:pagecheckerboard="0"
     inkscape:deskcolor="#d1d1d1"
     inkscape:document-units="mm"
     showgrid="false"
     inkscape:zoom="0.1"
     inkscape:cx="385"
     inkscape:cy="2165"
     inkscape:window-width="1366"
     inkscape:window-height="693"
     inkscape:window-x="-9"
     inkscape:window-y="-9"
     inkscape:window-maximized="1"
     inkscape:current-layer="layer1" /><defs
     id="defs2" /><g
     inkscape:label="Layer 1"
     inkscape:groupmode="layer"
     id="layer1"><path
       style="fill:#000000;stroke-width:3.26384"
       d="m 298.90179,770.93794 c -59.14709,-2.47562 -102.15842,-8.70348 -100.22232,-14.5116 1.20736,-3.62224 28.85159,-11.65281 40.46477,-11.75504 13.19168,-0.12336 11.0889,-6.15584 -4.6259,-13.28775 -8.56918,-3.88884 -27.33014,-11.43091 -41.6911,-16.7601 -38.20564,-14.17762 -61.91369,-27.78811 -77.0976,-44.26079 l -13.43948,-14.57992 1.59255,-26.5755 c 1.95213,-32.57945 13.85303,-68.97682 45.50715,-139.17766 32.46813,-72.00618 45.91008,-108.75619 60.9916,-166.75066 30.34992,-116.70673 66.38755,-178.78295 141.69246,-244.070773 17.79122,-15.424608 35.41883,-34.2289 42.84649,-45.706225 l 12.61931,-19.500028 8.28391,16.077014 c 4.5562,8.842412 22.40448,31.167786 39.66279,49.612029 70.58279,75.433203 99.13462,127.684153 125.8472,230.305473 17.8842,68.7059 24.62754,87.62368 61.26483,171.87354 43.47439,99.97237 52.32482,125.2224 52.6238,150.13627 0.18967,15.85497 -1.26441,21.58184 -7.64307,30.08332 -14.04485,18.71918 -40.90315,34.20053 -109.53565,63.13694 -30.69949,12.94342 -37.91652,19.25285 -22.38705,19.57188 15.77093,0.32381 61.46883,11.12745 61.46883,14.53196 0,6.79838 -52.86173,11.06115 -155.03202,12.50212 -58.34095,0.82341 -131.77715,0.42096 -163.1915,-0.89434 z M 406.60821,619.13588 c 0,-8.57102 13.73955,-14.87011 32.54862,-14.92223 9.92241,-0.0308 19.66394,-1.12872 21.64784,-2.44787 3.84366,-2.5552 16.71492,-77.81492 13.80585,-80.724 -0.94831,-0.94831 -6.81349,0.404 -13.03487,3.00283 -8.12154,3.3934 -25.52079,4.78811 -61.69797,4.9457 -27.71254,0.12336 -54.79273,-0.15419 -60.17805,-0.60445 -8.11491,-0.68155 -9.64855,0.29452 -8.95713,5.70466 0.4595,3.59017 2.67577,20.48057 4.92643,37.53411 l 4.09207,31.00634 23.62217,0.95911 c 22.4623,0.9113 23.86719,1.43248 28.61167,10.60734 5.17191,10.00151 14.61337,13.192 14.61337,4.938 z M 359.16373,346.55245 c 11.66359,-12.88808 -2.22429,-32.49249 -19.87904,-28.0615 -4.38166,1.09943 -9.59366,5.57067 -11.58234,9.93536 -8.36008,18.34849 17.6819,33.35229 31.46138,18.12614 z m 100.85762,-3.63211 c 15.52113,-12.20899 9.80475,-35.66524 -8.69176,-35.66524 -6.72437,0 -21.87451,16.13175 -21.87451,23.29188 0,7.0821 11.03077,19.13782 17.51089,19.13782 2.4505,0 8.32539,-3.044 13.05538,-6.76446 z"
       id="path457" /></g></svg>
